<?xml version="1.0" encoding="UTF-8" standalone="no"?>
<!-- Created with Inkscape (http://www.inkscape.org/) -->

<svg
   width="1080mm"
   height="1060mm"
   viewBox="0 0 1080 1060"
   version="1.1"
   id="svg1"
   xmlns="http://www.w3.org/2000/svg"
   xmlns:svg="http://www.w3.org/2000/svg">
  <defs
     id="defs1" />
  <g
     id="layer1">
    <rect
       style="fill:#ffffff;fill-opacity:1;stroke-width:3.55401"
       id="rect1"
       width="1083.8845"
       height="1056.5068"
       x="0.46347329"
       y="1.7344795" />
    <path
       style="fill:#ca64b8;fill-opacity:1;stroke:#000000;stroke-width:5.29129;stroke-opacity:1"
       d="m 100.51836,47.036492 c 44.81658,-15.785477 250.53017,121.518488 315.87921,237.909518 44.3412,78.97475 57.3685,303.98844 27.25274,345.32911 C 409.81979,676.71541 186.04151,529.8456 126.33353,371.29326 93.024405,282.84233 51.006703,76.746024 100.51836,47.036492 Z"
       id="path1" />
    <path
       style="opacity:0.799;fill:#f796e5;fill-opacity:1;stroke:#000000;stroke-width:5.29129;stroke-opacity:1"
       d="m 22.023125,281.49558 c 0,0 55.69485,-27.37318 141.952435,-10.73138 86.25756,16.64187 168.68882,88.09749 204.50769,134.55602 35.81881,46.45846 108.87924,142.53742 79.11899,220.47018 C 421.84787,693.23314 168.8225,569.11799 84.604345,436.15043 61.526509,399.71414 11.151601,308.23533 22.023125,281.49558 Z"
       id="path2" />
    <ellipse
       style="opacity:0.799;fill:#f796e5;fill-opacity:1;stroke:#000000;stroke-width:6.08815;stroke-opacity:1"
       id="path4"
       cx="-111.31377"
       cy="773.64087"
       rx="122.71539"
       ry="37.669052"
       transform="matrix(0.87891628,-0.47697608,0.52295118,0.85236264,0,0)" />
    <ellipse
       style="opacity:0.799;fill:#ca64b8;fill-opacity:1;stroke:#000000;stroke-width:5.71328;stroke-opacity:1"
       id="path3"
       cx="120.8084"
       cy="728.03204"
       rx="137.91768"
       ry="38.900887"
       transform="matrix(0.96809619,-0.25057885,0.23738471,0.97141572,0,0)" />
    <path
       style="color:#000000;fill:#29af49;fill-opacity:1;stroke:#29ae47;stroke-width:5.29129;stroke-linecap:round;stroke-opacity:1;-inkscape-stroke:none"
       d="m 895.92537,607.35828 c -63.8233,4.15138 -114.63325,36.37814 -153.24675,74.85195 -38.61357,38.47388 -72.40007,86.94239 -91.93282,135.91936 -39.06543,97.95401 -37.74694,196.18231 -37.74694,196.18231 -0.10929,1.4206 1.01706,2.656 2.51486,2.7579 1.49759,0.104 2.79987,-0.9647 2.90737,-2.3855 0,0 4.03853,-94.41179 42.76889,-191.52546 19.36516,-48.55682 51.17384,-95.89199 89.06618,-133.6473 37.89232,-37.75523 82.68122,-64.17647 145.07764,-68.23511 1.49337,-0.10187 6.40312,-4.28268 6.29992,-5.69943 0.7176,-4.19792 -4.21083,-8.31654 -5.70835,-8.21863 z"
       id="path10" />
    <ellipse
       style="opacity:0.799;fill:#ff64ea;fill-opacity:1;stroke:none;stroke-width:5.81263;stroke-opacity:1"
       id="path5"
       cx="-316.77249"
       cy="-1051.6301"
       rx="24.809875"
       ry="27.050917"
       transform="matrix(-0.81578395,0.57835676,-0.61888215,-0.78548386,0,0)" />
    <ellipse
       style="opacity:0.799;fill:#ff64ea;fill-opacity:1;stroke:none;stroke-width:5.81243;stroke-opacity:1"
       id="path5-3"
       cx="1198.7898"
       cy="-14.424389"
       rx="24.859512"
       ry="26.995047"
       transform="matrix(0.83824985,0.54528634,-0.58587181,0.81040374,0,0)" />
    <ellipse
       style="opacity:0.799;fill:#ff64ea;fill-opacity:1;stroke:none;stroke-width:5.81293;stroke-opacity:1"
       id="path5-5"
       cx="1026.2919"
       cy="-197.17082"
       rx="24.672287"
       ry="27.204617"
       transform="matrix(0.74921067,0.66233177,-0.70082872,0.71332959,0,0)" />
    <ellipse
       style="opacity:0.799;fill:#ff64ea;fill-opacity:1;stroke:none;stroke-width:5.81217;stroke-opacity:1"
       id="path5-7"
       cx="554.86755"
       cy="982.08167"
       rx="24.91205"
       ry="26.935652"
       transform="matrix(0.86125296,-0.50817649,0.54836021,0.83624224,0,0)" />
    <ellipse
       style="fill:#ff516e;fill-opacity:1;stroke:none;stroke-width:5.93048;stroke-opacity:1"
       id="path6"
       cx="961.36786"
       cy="588.74756"
       rx="45.828564"
       ry="101.72485" />
    <ellipse
       style="fill:#ff516e;fill-opacity:1;stroke:none;stroke-width:5.99462;stroke-opacity:1"
       id="path6-1"
       cx="-561.80341"
       cy="980.33704"
       rx="44.418701"
       ry="107.23566"
       transform="matrix(0.03228004,-0.99947886,0.99954011,0.03032436,0,0)" />
    <ellipse
       style="fill:#ff729c;fill-opacity:1;stroke:none;stroke-width:5.29129;stroke-opacity:1"
       id="path9"
       cx="961.50879"
       cy="589.84839"
       rx="38.9431"
       ry="39.782326" />
    <path
       style="fill:none;fill-opacity:1;stroke:#000000;stroke-width:5.29129;stroke-linecap:round;stroke-dasharray:none;stroke-opacity:1"
       d="m 407.04827,682.96715 c 0,0 -63.0717,71.01186 -37.57856,94.66399 17.7053,16.42681 176.77055,-13.19 181.00549,-230.80903"
       id="path11" />
    <path
       style="fill:none;fill-opacity:1;stroke:#000000;stroke-width:13.1118;stroke-linecap:round;stroke-linejoin:round;stroke-dasharray:none;stroke-opacity:1"
       d="m 464.37652,301.33316 c 0,0 28.20127,5.91016 54.92037,79.46662 11.22145,30.89204 28.44263,135.43582 28.44263,135.43582 0,0 -9.08799,-193.32597 53.60379,-235.29041"
       id="path14" />
    <path
       d="m 562.71151,975.88276 q -1.11164,0.30772 -1.98986,-0.32081 -0.91128,-0.64986 -1.18723,-1.8396 -0.31461,-1.3557 0.93878,-2.75292 1.69584,-1.91794 2.15791,-3.20472 0.94518,-2.72526 -0.0947,-7.20743 -0.99474,-4.28844 -3.63186,-7.52126 -3.3803,-4.12984 -7.45321,-3.10933 -3.35414,0.84043 -4.37966,5.28385 -0.90054,3.76792 0.10858,8.72607 0.85431,4.41146 -0.11061,7.90278 -1.24498,4.46908 -5.26459,5.47624 -4.73838,1.18725 -9.94786,-3.42104 -4.93882,-4.41264 -6.26089,-10.11214 -0.62263,-2.68372 -0.52724,-6.27928 0.1053,-4.76889 1.88852,-5.21582 2.34258,-0.58721 2.92015,1.90308 0.257,1.1067 0.33913,4.01355 0.053,2.91347 0.43583,4.42848 1.05442,4.30276 3.75048,6.81832 2.76847,2.58509 5.6967,1.85144 2.2095,-0.5535 2.16481,-4.87527 -0.006,-1.60836 -0.72813,-6.05322 -1.01707,-6.44924 1.53573,-10.8654 2.33066,-4.03847 6.77622,-5.15239 6.33561,-1.58751 11.52752,3.5521 4.50002,4.46406 6.11731,11.43631 1.17443,5.06312 0.28679,9.73544 -1.09566,5.7198 -5.06943,6.80332 z m 2.72721,-68.79571 q -0.0331,0.53973 -1.31312,1.88731 -1.19266,1.21037 -2.10262,1.78232 1.2681,2.81383 1.86216,4.93109 0.62131,2.11888 0.54315,3.51108 -0.37357,6.64829 -4.15333,9.46907 -3.55113,2.66358 -10.54916,2.23834 -6.61526,-0.40272 -11.05182,-5.40402 -4.4349,-5.03043 -4.06571,-11.59349 0.13911,-2.47178 1.54179,-5.4655 1.74817,-3.77097 3.90772,-3.63976 0.73808,0.0481 1.28015,0.64782 1.02282,0.34695 3.39142,0.66225 2.37026,0.28639 6.08636,0.54111 3.38811,0.23405 5.38506,-0.15765 1.21874,-0.21136 4.91181,-1.49753 0.50339,-0.16935 1.4856,-0.5652 l 0.47425,-0.14181 q 1.09342,0.0689 1.75943,0.90514 0.66595,0.8387 0.60673,1.88992 z m -19.331,4.75514 q -1.17542,-0.0723 -2.53425,-0.29672 -1.3846,-0.2554 -2.9252,-0.66225 -0.57823,1.01969 -0.86768,1.77186 -0.28747,0.7238 -0.3133,1.17836 -0.24839,4.40369 3.04335,7.82527 3.26531,3.39137 7.77578,3.66543 4.48306,0.27262 6.81734,-1.23923 2.3343,-1.51163 2.5197,-4.80738 0.15234,-2.72758 -0.69627,-4.68924 -0.46167,-1.05439 -1.91615,-2.99579 -7.29518,0.4688 -10.90351,0.24988 z M 571.8146,872.9896 q -0.10995,0.52872 -1.57589,1.65586 -1.3571,1.00611 -2.34058,1.42635 0.83809,2.98258 1.1129,5.1694 0.30137,2.1929 0.0199,3.55609 -1.34995,6.51019 -5.50064,8.69559 -3.9019,2.06649 -10.75455,0.53145 -6.47789,-1.45104 -10.12431,-7.10069 -3.64072,-5.67747 -2.30806,-12.10417 0.50208,-2.42049 2.32952,-5.15535 2.28356,-3.44791 4.39828,-2.97425 0.72277,0.16175 1.16947,0.84426 0.95949,0.506 3.25371,1.19461 2.29997,0.66089 5.93467,1.50407 3.31346,0.77131 5.34466,0.70226 1.23543,-0.0137 5.07461,-0.69751 0.52261,-0.0868 1.55146,-0.32217 l 0.48947,-0.062 q 1.07078,0.23958 1.60517,1.17474 0.53453,0.93485 0.32125,1.96426 z m -19.80386,1.61958 q -1.15098,-0.25748 -2.46059,-0.69669 -1.33055,-0.47294 -2.79285,-1.12054 -0.72204,0.91547 -1.11873,1.61263 -0.3908,0.66914 -0.48353,1.11454 -0.89419,4.31234 1.85349,8.21762 2.72668,3.87146 7.14343,4.8608 4.38993,0.98334 6.91955,-0.13838 2.52956,-1.12198 3.19879,-4.34924 0.55374,-2.67085 0.003,-4.74473 -0.30072,-1.11551 -1.45176,-3.26564 -7.27816,-0.69868 -10.81152,-1.49009 z m 8.94579,-41.9469 q 3.18826,1.30938 2.38636,3.82149 -0.7416,2.32307 -3.31453,1.43577 -0.49412,-0.17005 -1.8452,-0.54661 l -2.20898,-0.67189 q -0.86861,4.43825 0.1318,7.63175 0.92189,2.98665 3.81771,5.75437 l 14.25952,4.85737 q 2.625,0.90519 1.77128,3.57936 -0.7588,2.37711 -3.3838,1.47192 l -18.24466,-6.29161 q -0.85763,-0.29603 -2.55572,-0.94128 -1.68942,-0.67261 -2.54712,-0.96826 -2.62493,-0.90521 -1.86606,-3.28233 0.84504,-2.64717 5.16794,-1.18642 -3.15245,-6.84435 -1.13463,-13.16515 0.69847,-2.188 2.62872,-2.7218 1.93031,-0.53353 5.12699,0.56863 1.35148,0.46606 1.81069,0.65469 z m 33.18346,-23.34227 q -0.20533,0.49704 -1.85281,1.31007 -1.51787,0.71616 -2.56076,0.93205 0.27091,3.09445 0.13579,5.29541 -0.10859,2.21223 -0.63918,3.49352 -2.52903,6.11902 -7.00653,7.43424 -4.21135,1.24825 -10.65228,-1.62735 -6.08862,-2.71836 -8.62201,-8.99125 -2.52252,-6.29906 -0.0266,-12.3396 0.94022,-2.27501 3.23969,-4.59368 2.87875,-2.92731 4.86636,-2.03986 0.67932,0.30359 0.99155,1.06216 0.84795,0.68841 2.97201,1.82245 2.13486,1.10809 5.54575,2.66185 3.10898,1.41905 5.11502,1.75713 1.2151,0.23269 5.10898,0.32975 0.52856,0.0207 1.58205,-0.006 l 0.49279,0.0344 q 1.00639,0.44954 1.35791,1.47357 0.35171,1.02422 -0.0463,1.9918 z m -19.73404,-2.36774 q -1.08183,-0.48327 -2.28574,-1.17542 -1.21834,-0.72979 -2.53352,-1.65771 -0.87789,0.7541 -1.3962,1.35908 -0.50737,0.57895 -0.68037,0.99718 -1.67518,4.05314 0.29872,8.43466 1.95967,4.34406 6.11101,6.1975 4.12618,1.84221 6.81615,1.24666 2.68992,-0.59549 3.94356,-3.62894 1.0376,-2.51039 0.88108,-4.65551 -0.0888,-1.15482 -0.82054,-3.49483 -7.01313,-2.13995 -10.33427,-3.62267 z m 35.5077,-30.18765 q -0.90378,1.78905 -3.02639,1.33793 -2.28078,-0.50529 -6.18346,-2.02435 -3.74452,-1.46489 -5.99921,-2.69523 -0.63058,-0.34422 -1.88984,-1.09563 -1.24676,-0.77681 -1.87713,-1.12081 -4.55784,-2.48727 -5.75446,-0.11841 -1.61663,3.20012 -0.1014,7.24141 0.78126,2.06568 3.67285,6.50456 9.23697,5.04074 10.5267,6.77321 1.14676,1.52582 0.39543,3.01247 -0.52193,1.03312 -1.59536,1.44382 -1.07348,0.411 -2.04318,-0.11841 -0.33978,-0.18518 -0.95221,-0.80889 -0.50406,-0.53215 -3.39964,-2.20881 l -3.54991,-2.03366 -17.78121,-9.79994 q -2.91716,-1.81694 -3.95965,-2.38577 -1.23644,-0.67466 -2.45471,-1.01819 -1.22981,-0.38208 -2.41776,-1.03008 -1.01824,-0.55554 -1.30365,-1.6436 -0.30999,-1.1012 0.2252,-2.15958 1.04382,-2.06622 3.35552,-1.25471 2.55532,0.88021 4.44637,1.91215 2.54565,1.38916 5.22033,3.07381 2.56625,1.59335 5.24582,3.02346 l 2.14619,1.13906 q -1.623,-3.52154 -1.74837,-6.57942 -0.13712,-3.09624 1.19979,-5.74206 2.11308,-4.18285 5.52065,-4.31626 2.40265,-0.10321 6.84298,2.12709 l 4.73243,2.32541 5.29736,2.24797 q 3.01474,1.19517 5.42706,1.86871 0.46299,0.12392 0.75403,0.28295 0.994,0.54247 1.2667,1.65558 0.29674,1.12639 -0.23779,2.1847 z m -23.51512,-43.06358 q 0.70197,0.44333 2.15366,1.19393 1.45169,0.7505 2.15373,1.19393 2.9952,1.89198 1.71525,4.08088 -0.88179,1.50784 -2.15314,1.27089 -0.65176,-0.14525 -2.33681,-1.20962 -0.65507,-0.41375 -2.02748,-1.08095 -1.38149,-0.70612 -2.03668,-1.12 -2.34,-1.47811 -3.04521,-2.19007 -1.56417,-1.65407 -0.59679,-3.30793 0.54049,-0.92413 1.49522,-1.18698 0.93134,-0.27743 1.82055,0.28432 0.49148,0.31047 1.44072,1.0433 0.9259,0.7181 1.41731,1.0285 z m 36.39996,-22.60801 q -0.85027,1.29197 -2.02663,1.21425 -0.81954,-0.0688 -2.84291,-1.12467 -0.73007,2.06705 -1.9892,6.551 -1.04269,4.81027 1.0664,6.34421 0.71237,-0.52803 1.27372,-1.12888 4.48252,-4.74383 7.84128,-6.21781 4.89313,-2.14167 9.39069,1.05591 3.68392,2.61916 3.3799,7.26496 -0.27224,3.84097 -3.03938,8.0457 -2.02529,3.07718 -4.85948,5.1655 -3.64648,2.7176 -5.90659,1.11077 -0.90406,-0.64299 -1.10284,-1.85297 -0.18347,-1.23377 0.43516,-2.17333 0.47956,-0.72821 2.32165,-1.10794 0.89088,-0.19413 2.52856,-1.92634 1.30703,-1.38097 2.01816,-2.46152 1.29868,-1.97315 1.83612,-3.79786 0.78239,-2.65058 -0.64183,-3.66289 -3.07368,-2.18532 -7.096,1.50647 l -2.12763,2.07337 q -2.71163,2.65822 -4.45888,3.34697 -2.5179,1.00289 -5.07177,-0.81289 -4.72362,-3.35825 -3.6894,-9.41593 0.31726,-1.84323 1.5219,-5.53842 1.18191,-3.71126 1.47554,-5.46797 0.22718,-1.25237 0.96916,-2.37988 0.66475,-1.01005 1.71499,-1.1944 1.06574,-0.2079 2.08279,0.51493 0.65574,0.46607 2.10657,1.08399 1.46659,0.5948 2.12207,1.06045 1.017,0.72304 1.21695,1.8307 0.21528,1.08413 -0.44974,2.09418 z m 28.3542,-62.31641 q -0.31793,0.39101 -0.83895,0.67878 -3.15369,1.85047 -6.75926,6.28493 -1.16653,1.43467 -2.53041,3.55309 -1.36711,2.07818 -2.89299,4.83676 l 8.99988,7.9792 q 2.34451,-5.13224 4.0589,-7.24081 2.72189,-3.34756 6.01462,-6.60367 1.87051,-1.85963 3.79467,-0.16935 0.94121,0.82667 1.05607,2.00814 0.0941,1.16314 -0.666,2.09787 -0.9191,1.13033 -2.94546,3.22575 -2.02636,2.09539 -2.94545,3.22572 -1.20186,1.47819 -3.98324,7.45634 l 14.23037,12.83409 q 0.89933,0.7899 1.01101,1.93122 0.13246,1.15978 -0.62726,2.09452 -0.75999,0.93468 -1.90003,1.01397 -1.1014,0.0757 -2.00073,-0.71394 -4.12022,-3.61882 -12.23699,-11.00867 -8.11987,-7.43 -12.24016,-11.04888 -0.92022,-0.80821 -2.79608,-2.38131 -1.87913,-1.61317 -2.79934,-2.42145 -0.9203,-0.80827 -1.07052,-1.94624 -0.13246,-1.15977 0.64515,-2.11628 0.58353,-0.71732 1.41924,-0.95179 1.73148,-3.09962 3.27213,-5.43536 1.51965,-2.35413 2.8453,-3.98445 2.03252,-2.49986 5.3385,-5.11083 4.51465,-3.52422 6.06239,-2.16486 0.83656,0.73482 1.0254,1.8694 0.21924,1.27337 -0.54049,2.20811 z m 39.98234,-13.73205 q 1.41719,1.42454 4.27064,4.25318 2.85344,2.8286 4.27063,4.25313 0.43319,0.43509 1.37587,1.26429 0.96188,0.80848 1.39493,1.24377 0.84635,0.85074 0.82576,1.97825 -9.2e-4,1.14726 -0.80047,2.00646 -1.4658,1.57525 -3.73544,0.1253 -1.10012,3.84332 -4.20307,7.17788 -2.49374,2.67995 -5.27253,3.29176 -3.06819,0.6774 -5.83189,-1.38815 -5.95847,-4.44526 -10.03292,-8.54081 -2.69659,-2.71058 -5.57004,-6.78672 -1.44594,-2.00779 0.096,-3.66481 0.81854,-0.87966 1.9217,-0.91896 1.08349,-0.062 1.92992,0.79167 0.90538,0.91016 2.60784,3.21533 1.72155,2.28474 2.76476,3.33334 3.2871,3.30414 5.83884,5.43355 2.55169,2.12944 4.3877,3.1039 0.98247,-0.31875 1.78849,-0.77572 0.7863,-0.47639 1.37639,-1.11077 2.55088,-2.74135 4.54094,-6.64028 l -4.01477,-3.99601 -3.85659,-3.79741 q -4.25155,-4.27363 -7.01956,-7.80819 -1.60146,-2.0453 0.0331,-3.8047 0.81855,-0.87965 1.92178,-0.91897 1.10316,-0.0413 1.89177,0.83265 z m 36.87938,-10.09219 q -1.74856,1.63948 -3.69637,-0.13698 l -4.58619,-4.09412 q -2.4306,-2.20554 -4.30148,-4.361 -0.51334,-0.59204 -1.68147,-2.06471 -1.14755,-1.49207 -1.66114,-2.08378 -3.96185,-4.56451 -5.58841,-3.03944 -2.27719,2.13513 -1.91157,6.89012 0.34907,4.31083 2.68481,9.21154 0.67461,0.86225 1.6145,2.24254 0.79511,1.17092 1.65717,2.16418 0.55042,0.63403 1.77274,1.78748 1.22251,1.15352 1.77274,1.7875 0.82544,0.95089 0.76973,2.07639 -0.0331,1.10644 -0.90969,1.92614 -0.89465,0.83878 -1.95714,0.7618 -1.06256,-0.077 -1.88792,-1.02787 -0.55043,-0.63404 -1.79308,-1.76848 -1.22253,-1.15353 -1.77281,-1.78749 -1.88919,-2.17658 -4.9428,-6.28948 -3.05156,-4.1531 -4.94074,-6.32967 -0.58686,-0.67603 -1.82381,-1.9313 -1.21657,-1.27412 -1.80348,-1.95036 -0.78868,-0.90866 -0.71463,-2.01301 0.0761,-1.14457 0.93002,-1.94519 1.87051,-1.75383 4.43797,0.82175 l 2.20696,2.41526 q -0.69282,-7.93625 2.90598,-11.31048 3.25312,-3.05017 7.12026,-1.27157 2.59836,1.16665 6.05462,4.97873 l 1.85257,2.13429 1.68543,1.98431 q 1.52238,1.75396 4.37046,4.14304 2.85008,2.34891 4.35415,4.08173 0.80703,0.92977 0.71265,2.05321 -0.053,1.1255 -0.93003,1.94521 z m 14.2456,-46.36454 q 2.18022,3.53338 4.62174,6.85954 5.53065,7.53491 9.02904,10.84641 0.27621,0.28225 0.42589,0.48602 0.66436,0.90515 0.48685,1.97674 -0.17751,1.07167 -0.98328,1.71039 -1.34976,1.07027 -3.47586,-0.46538 -0.68728,2.44209 -1.93695,4.39948 -1.22789,1.94012 -3.05665,3.39012 -4.50658,3.57332 -9.75936,2.79844 -5.38977,-0.77378 -9.0603,-5.77441 -4.43451,-6.04149 -4.03882,-12.11846 0.4173,-6.09417 5.33765,-9.99545 2.52537,-2.00241 4.49484,-2.27537 l 3.19244,-0.062 q -6.68745,-9.76773 -8.69872,-13.39933 -1.19516,-2.23822 0.50273,-3.58469 1.9812,-1.57084 3.59218,0.62371 2.30866,3.14519 9.32697,14.58363 z m -9.23437,8.2527 q -3.65749,2.90005 -3.8254,6.61283 -0.18348,3.69014 3.13726,8.21553 2.14255,2.91898 5.6683,3.45244 3.54754,0.51631 6.22532,-1.60705 1.82879,-1.45002 2.5766,-3.15269 0.44112,-0.99415 1.03804,-3.79415 0.11061,-0.55282 0.11657,-1.20206 l -2.93863,-3.86272 -1.90481,-2.64202 -1.91635,-2.70454 q -2.17253,-1.17686 -4.2085,-0.99443 -2.05246,0.15972 -3.96826,1.67886 z"
       id="text15"
       style="font-size:32px;line-height:100.8px;font-family:'Comic Sans MS';-inkscape-font-specification:'Comic Sans MS';letter-spacing:2.84px;word-spacing:0px;stroke-width:4.42728;stroke-linecap:round;stroke-linejoin:round"
       aria-label="Saarah's Fund" />
  </g>
</svg>
