<svg xmlns="http://www.w3.org/2000/svg" viewBox="0 0 515.46 243.02" width="515.4552" height="243.0237"><defs><style>.cls-1,.cls-2,.cls-5{isolation:isolate;}.cls-2{font-size:57.96px;font-family:Paralucent-Medium, Paralucent;font-weight:500;}.cls-2,.cls-5{fill:#758fd3;}.cls-3{letter-spacing:-0.02em;}.cls-4{fill:#3e5aa4;}</style></defs><g id="Layer_2" data-name="Layer 2"><g id="Layer_1-2" data-name="Layer 1"><g id="payments_on_dark_background" data-name="payments on dark background" class="cls-1"><text class="cls-2" transform="translate(422.09 227.2)">.o<tspan class="cls-3" x="45.03" y="0">r</tspan><tspan x="62.42" y="0">g</tspan></text></g><g id="wonderful" class="cls-1"><path class="cls-4" d="M497.74,147.56c2,4,10.62,1.31,16.59,3.31.26,13.79-18.15,7.85-20.53,8.31-2.77.93-8.47,6-13.94,9.13-7,3-9,6-17.59,3.31-5.46-2.66-6.64-5.32-13.44-10.34-6.94,6.79-16.54,18.16-29.68,11.67-6.2-12.26,5.32-32-.59-42.1-29.84-4.13-4.58,51.7-21.42,57.31-12.7,0-2.66-33.08-6.05-49.48-5.62-.29-14.62,13.44-18.76,9.45-7.09-16.39,15.06-19.34,22.45-28.5,1.92-16.54,15.8-54.06,26.44-56.27,4.57-.74,9.3,2.51,14,11.81.59,1.92,1,4.14,0,6.21-2.37,1.92-6.06-2.22-10.05-2.22-5.76,0-13.88,23.78-16.83,36.78,27.32-3.55,27.32,17.57,23.78,40.76-.15.3-.3,2.66.73,2.81,15.36-1.92,10.93-22.31,18.32-32.2a4.71,4.71,0,0,1,3.39-1.18c12.12,3.1,3.4,17.57,5.62,25.84,4.88,7.78,14.22,11.92,21.19,2,4.24-8.79-5.36-24.33-7.93-36.47-5.73-17.8,4-79.27,28-58.15C519.87,72,496.56,128.36,497.74,147.56ZM491.8,69.79c-13.38,12.89-9.22,47.3-2,63.69C494.24,116.79,511.42,73.31,491.8,69.79Z"/><path class="cls-4" d="M283.57,166.6c-5.17,8.12-15.22-.89-21.42-2.22-10.93,4.14-19.79,15.51-29.24,14.92-8.12-2.66-8.72-4.58-12.41-8.13-20.67,16.4-32.19-11.52-33.67-31.45-10.34,12.84-17.58,42.68-27,42.68-13.59-2.22.44-68.38-33.67-55.09,4.57,11.22,19.49,17.43,18,39.29C143,184,123.32,191.85,109.29,183c-9.6-6.06-25.7-38-3.25-49-1.33-2.52-3-4.58-2.22-9,33.83-23,53.47-13.44,59.23,30.57C174,144,175,124.21,190.23,117c18.16-.59-6.36,38.55,28.2,50.81,2.52-26.44,4.44-52.29,32.5-53,5.17-8.87,1.92-30.72,12.4-31.46,19.2-1.33,1.33,55.82,6.5,69.71C272.19,159.06,283.57,161.43,283.57,166.6Zm-52-4.29c4.28,8.86,17.87-.59,23.93-4.72-2.37-9.6-1.19-21.57-6.65-28.07C239.55,132.18,230.55,147.84,231.58,162.31ZM111.06,140.9c-5.17,11.66-5.46,27.91,7.24,31.46,27.47,7.82,12.4-38-7.53-36.63C110.47,136.32,111.8,139.12,111.06,140.9Z"/><path class="cls-4" d="M7.68,131.44c4.87-16.24,6.5-28.5,15.06-27.91,13.15.89-4.43,35.15-8.86,54.06,3.84,3.84,13.74-24.52,28.06-23.63,10.49.59,14.77,43.42,34.86,39.28,7.09-4.13-15.51-52.72-10-62.32,17.28-9.16,31.17,69,17.43,76.65-17.57,5.17-34.12-21.42-44.45-39.14-4,0-14.63,30.87-35.89,25.85C-4,167.78,1.62,151.83,7.68,131.44Z"/><path class="cls-4" d="M299.22,155.37a8.25,8.25,0,0,0,2.81,5.76c12.55,9.75,33.52-9.75,36.63-22.74,3.39-.89,3.25,1.92,6.79,1.18,4.43-11.37,14.47-36.63,28.06-21.42.44,2.22-1.92,3.1-2.95,3.84-12,10.19-16.25,14.92-14.33,49.77-11.08.89-13.29-4.43-19.79-10.92-11.22,5.31-17.13,13-27,14.62C258.9,183.28,296.56,78.87,324,117,329.79,141.19,305.13,139.86,299.22,155.37Zm4.14-22c4.72-1.62,8.27-4.28,8.27-9.45C305.87,124.36,305.43,127.46,303.36,133.36Z"/></g><path class="cls-5" d="M398.47,25.55a188.27,188.27,0,0,1-26.29,14Q377.51,24.3,382.37,9c3-9-11.22-12.85-14.18-4-4.43,13.44-8.86,27-13.73,40.47-6.35-13.59-12.41-27.62-20.68-39.88-5.31-7.83-18-.44-12.7,7.39a192.94,192.94,0,0,1,12.85,22.89c-2.51-1.63-5-3.1-7.38-4.73-8.13-5-15.51,7.68-7.39,12.7,5.32,3.25,10.49,6.65,15.8,9.9-13.44,4.58-27,8.86-40.32,13.73-8.86,3.25-5,17.58,4,14.18,15.8-5.76,32.05-10.93,48-16.54a239,239,0,0,1-16.54,32.49c-5,8.13,7.83,15.51,12.7,7.39a250.36,250.36,0,0,0,13.59-25.55,126.66,126.66,0,0,0,12,16.1c6.35,7.08,16.84-3.4,10.49-10.49a95,95,0,0,1-9.9-13,175.15,175.15,0,0,0,19.79,7.68c9.16,3,13-11.37,4-14.18A159.6,159.6,0,0,1,370,56.27a224.67,224.67,0,0,0,36-18.46C413.83,33.23,406.45,20.38,398.47,25.55Z"/></g></g></svg>